#!OML:ASF I:\Actors\actors\Patient Classification 2\Patient 1\Session 1\actor1.ASF
:FULLY-SPECIFIED
:DEGREES
477
root -0.427344 18.5482 4.67948 2.95529 -20.625 3.32539
lowerback 38.172 -3.68811 3.92188
upperback 16.8498 -3.49746 4.49253
thorax -0.0573417 -1.96323 3.81201
lowerneck -4.7244 -8.10151 -9.36845
upperneck 34.5997 -11.2712 2.97648
head 13.1156 -5.73842 1.36898
rclavicle -1.98785e-014 -3.57812e-014
rhumerus -55.6458 72.3388 -137.781
rradius 147.05
rwrist 13.7018
rhand -40.1731 -40.5319
rfingers 7.12502
rthumb -13.1346 -70.0982
lclavicle -1.98785e-014 -3.57812e-014
lhumerus -9.71915 -68.0545 107.628
lradius 135.63
lwrist 22.5848
lhand -41.5521 -49.5579
lfingers 7.12502
lthumb -14.4636 -20.0819
rfemur -14.8334 11.8276 8.85309
rtibia 20.9843
rfoot -15.7115 -5.14066
rtoes -14.8439
lfemur -13.971 12.9611 -18.784
ltibia 29.9747
lfoot -20.875 12.066
ltoes -55.5227
478
root -0.42589 18.5515 4.69031 2.98183 -20.6054 3.40537
lowerback 38.1957 -3.67821 3.90209
upperback 16.7898 -3.48439 4.45699
thorax -0.13298 -1.95387 3.78338
lowerneck -4.4484 -8.39944 -10.1128
upperneck 34.6789 -11.5002 2.70729
head 13.1589 -5.95471 1.36448
rclavicle -2.22639e-014 5.56597e-014
rhumerus -55.9596 72.5021 -138.176
rradius 147.199
rwrist 13.971
rhand -40.1365 -40.4095
rfingers 7.12502
rthumb -13.0993 -69.9781
lclavicle -2.22639e-014 5.56597e-014
lhumerus -9.5166 -68.1344 107.487
lradius 135.538
lwrist 22.2469
lhand -42.3166 -49.8317
lfingers 7.12502
lthumb -15.2001 -20.41
rfemur -14.8225 11.8279 8.74849
rtibia 20.9295
rfoot -15.6985 -5.2305
rtoes -15.3455
lfemur -13.9386 12.8463 -18.902
ltibia 29.8757
lfoot -20.8745 12.17
ltoes -55.4879
479
root -0.424441 18.5541 4.69959 3.02303 -20.5712 3.42916
lowerback 38.3047 -3.68971 3.91686
upperback 16.6892 -3.476 4.4352
thorax -0.278958 -1.94579 3.75792
lowerneck -4.25111 -8.56898 -10.8352
upperneck 34.8176 -11.5258 2.35867
head 13.2227 -6.08946 1.34877
rclavicle -5.64548e-014 5.56597e-015
rhumerus -56.4576 72.6327 -138.773
rradius 147.245
rwrist 14.1582
rhand -40.1513 -40.132
rfingers 7.12502
rthumb -13.1137 -69.6997
lclavicle -5.64548e-014 5.56597e-015
lhumerus -9.41397 -68.2666 107.376
lradius 135.498
lwrist 22.4016
lhand -42.8303 -50.3756
lfingers 7.12502
lthumb -15.6949 -20.9921
rfemur -14.7974 11.8387 8.69977
rtibia 20.8432
rfoot -15.6877 -5.28906
rtoes -15.4074
lfemur -13.9273 12.7444 -18.9537
ltibia 29.8011
lfoot -20.8589 12.2396
ltoes -55.4544
480
root -0.423446 18.5568 4.70912 3.07484 -20.5048 3.39526
lowerback 38.3594 -3.69718 3.96175
upperback 16.6304 -3.45853 4.4519
thorax -0.361173 -1.93437 3.75091
lowerneck -4.06392 -8.58563 -11.4777
upperneck 34.8444 -11.3661 2.08324
head 13.2222 -6.12811 1.37568
rclavicle 5.56597e-015 -3.73715e-014
rhumerus -56.6123 72.738 -138.981
rradius 147.123
rwrist 14.2826
rhand -40.1836 -39.9432
rfingers 7.12502
rthumb -13.1448 -69.5089
lclavicle 5.56597e-015 -3.73715e-014
lhumerus -9.40152 -68.4308 107.362
lradius 135.526
lwrist 22.5801
lhand -43.1889 -50.7248
lfingers 7.12502
lthumb -16.0403 -21.3688
rfemur -14.7396 11.8134 8.7144
rtibia 20.7272
rfoot -15.6744 -5.28304
rtoes -14.7916
lfemur -13.9308 12.6863 -18.9377
ltibia 29.7585
lfoot -20.8257 12.2638
ltoes -55.5092
481
root -0.423651 18.5589 4.71745 3.1298 -20.3969 3.29986
lowerback 38.3905 -3.6708 4.02715
upperback 16.6025 -3.39473 4.52625
thorax -0.401707 -1.90287 3.77696
lowerneck -3.9639 -8.58047 -11.764
upperneck 34.8556 -11.257 1.89761
head 13.2111 -6.13503 1.36963
rclavicle -4.92986e-014 9.14409e-014
rhumerus -56.3122 72.788 -138.649
rradius 146.956
rwrist 14.4098
rhand -40.212 -39.9755
rfingers 7.12502
rthumb -13.1721 -69.5394
lclavicle -4.92986e-014 9.14409e-014
lhumerus -9.30529 -68.5362 107.337
lradius 135.584
lwrist 22.696
lhand -43.3386 -50.9671
lfingers 7.12502
lthumb -16.1844 -21.6227
rfemur -14.6358 11.7728 8.8072
rtibia 20.5829
rfoot -15.6678 -5.31147
rtoes -14.214
lfemur -13.9379 12.7119 -18.8447
ltibia 29.7393
lfoot -20.7637 12.1887
ltoes -55.5584
482
root -0.42526 18.5614 4.72335 3.12523 -20.2294 3.22832
lowerback 38.491 -3.64239 4.08383
upperback 16.5867 -3.32602 4.60291
thorax -0.449894 -1.8696 3.81086
lowerneck -4.06757 -8.52489 -11.6143
upperneck 34.935 -11.1348 1.72356
head 13.2324 -6.0815 1.29021
rclavicle -8.50798e-014 6.36111e-014
rhumerus -55.8784 72.8107 -138.208
rradius 146.854
rwrist 14.4836
rhand -40.2944 -39.9181
rfingers 7.12502
rthumb -13.2516 -69.4768
lclavicle -8.50798e-014 6.36111e-014
lhumerus -8.96584 -68.5574 107.04
lradius 135.636
lwrist 22.6306
lhand -43.3807 -51.1296
lfingers 7.12502
lthumb -16.2249 -21.7886
rfemur -14.4575 11.7497 8.89333
rtibia 20.4359
rfoot -15.7161 -5.40882
rtoes -14.0589
lfemur -13.9049 12.7145 -18.7516
ltibia 29.722
lfoot -20.7005 12.0391
ltoes -55.4164
483
root -0.428641 18.5653 4.72921 3.06078 -20.0223 3.19869
lowerback 38.6159 -3.61601 4.14991
upperback 16.5911 -3.25675 4.64959
thorax -0.484677 -1.83334 3.80841
lowerneck -4.28484 -8.34319 -11.1313
upperneck 35.0178 -10.9043 1.62889
head 13.245 -5.93298 1.19899
rclavicle 4.69132e-014 -1.00187e-013
rhumerus -55.9023 72.863 -138.244
rradius 146.737
rwrist 14.7819
rhand -40.451 -39.8581
rfingers 7.12502
rthumb -13.4025 -69.407
lclavicle 4.69132e-014 -1.00187e-013
lhumerus -8.85904 -68.6005 106.864
lradius 135.774
lwrist 22.4719
lhand -43.277 -50.7118
lfingers 7.12502
lthumb -16.1251 -21.3626
rfemur -14.2217 11.7237 8.95466
rtibia 20.3175
rfoot -15.7821 -5.52634
rtoes -14.0706
lfemur -13.8046 12.5995 -18.6798
ltibia 29.6907
lfoot -20.7069 11.8956
ltoes -55.1566
484
root -0.434594 18.5692 4.73672 3.01528 -19.7864 3.18381
lowerback 38.8106 -3.57581 4.22895
upperback 16.4686 -3.15279 4.69445
thorax -0.52775 -1.78303 3.81206
lowerneck -4.6067 -8.14805 -10.3975
upperneck 35.2317 -10.7678 1.74058
head 13.3381 -5.77114 1.12683
rclavicle 4.77083e-015 -6.04305e-014
rhumerus -55.3721 72.7937 -137.727
rradius 146.457
rwrist 14.9989
rhand -40.5748 -39.8897
rfingers 7.12502
rthumb -13.5219 -69.4307
lclavicle 4.77083e-015 -6.04305e-014
lhumerus -9.05313 -68.5542 106.969
lradius 136.006
lwrist 22.5697
lhand -42.5471 -50.0268
lfingers 7.12502
lthumb -15.4222 -20.6221
rfemur -14.0204 11.6773 9.00502
rtibia 20.2396
rfoot -15.8403 -5.67046
rtoes -14.2385
lfemur -13.7159 12.48 -18.6314
ltibia 29.6433
lfoot -20.6604 11.8107
ltoes -55.1676
485
root -0.442813 18.5722 4.74442 3.01385 -19.5092 3.21949
lowerback 38.659 -3.48307 4.20716
upperback 16.592 -3.05306 4.80138
thorax -0.500329 -1.73355 3.87367
lowerneck -5.18784 -8.03979 -9.3513
upperneck 35.6349 -10.8444 1.95385
head 13.5708 -5.64459 0.997018
rclavicle -2.54444e-014 -9.54166e-015
rhumerus -55.0954 72.6664 -137.432
rradius 146.073
rwrist 15.1736
rhand -40.8733 -39.7911
rfingers 7.12502
rthumb -13.8095 -69.3127
lclavicle -2.54444e-014 -9.54166e-015
lhumerus -9.07037 -68.7057 106.876
lradius 136.098
lwrist 22.1576
lhand -42.2777 -49.6216
lfingers 7.12502
lthumb -15.1627 -20.1971
rfemur -13.9 11.6099 8.99326
rtibia 20.1982
rfoot -15.9431 -5.83512
rtoes -14.3234
lfemur -13.7046 12.3546 -18.6538
ltibia 29.5926
lfoot -20.5273 11.7768
ltoes -55.3284
486
root -0.449787 18.5747 4.75143 3.03417 -19.2376 3.2551
lowerback 38.5486 -3.30587 4.14076
upperback 16.6075 -2.85386 4.9837
thorax -0.452108 -1.64681 4.03002
lowerneck -5.49134 -7.62742 -8.2351
upperneck 35.6706 -10.4809 2.07172
head 13.5388 -5.33607 0.900253
rclavicle 3.97569e-014 1.90833e-014
rhumerus -55.4196 72.4806 -137.404
rradius 145.953
rwrist 15.3809
rhand -41.3518 -39.6027
rfingers 7.12502
rthumb -14.2707 -69.0923
lclavicle 3.97569e-014 1.90833e-014
lhumerus -9.00938 -68.9024 106.767
lradius 136.301
lwrist 22.0378
lhand -42.1161 -49.14
lfingers 7.12502
lthumb -15.007 -19.7038
rfemur -13.8232 11.5574 8.96873
rtibia 20.1925
rfoot -16.0919 -5.98004
rtoes -14.1904
lfemur -13.727 12.1696 -18.6857
ltibia 29.5485
lfoot -20.4532 11.7782
ltoes -55.4593
487
root -0.454256 18.5759 4.75938 3.04102 -18.9628 3.2689
lowerback 38.4012 -3.16293 4.1658
upperback 16.6636 -2.67387 5.13606
thorax -0.349652 -1.56243 4.11203
lowerneck -5.90735 -7.1319 -6.93839
upperneck 35.6894 -10.0601 2.26676
head 13.5188 -4.96972 0.804191
rclavicle 6.36111e-015 -8.5875e-014
rhumerus -54.1686 72.4516 -136.117
rradius 145.658
rwrist 15.5464
rhand -41.7544 -39.725
rfingers 7.12502
rthumb -14.6586 -69.1868
lclavicle 6.36111e-015 -8.5875e-014
lhumerus -8.71848 -69.0203 106.418
lradius 136.462
lwrist 21.7348
lhand -41.6773 -48.6335
lfingers 7.12502
lthumb -14.5843 -19.1663
rfemur -13.7319 11.5273 8.96056
rtibia 20.2181
rfoot -16.2869 -6.10696
rtoes -14.0155
lfemur -13.724 11.955 -18.699
ltibia 29.5064
lfoot -20.4158 11.7736
ltoes -55.5716
488
root -0.458961 18.5756 4.76705 3.02957 -18.6813 3.32089
lowerback 38.1599 -2.99212 4.22357
upperback 16.7812 -2.4631 5.25533
thorax -0.153453 -1.45801 4.12799
lowerneck -6.41441 -6.62293 -5.43042
upperneck 35.669 -9.685 2.51752
head 13.5032 -4.58694 0.681762
rclavicle -2.8625e-014 9.54166e-015
rhumerus -50.3777 72.5121 -132.523
rradius 145.213
rwrist 15.6778
rhand -42.0272 -40.331
rfingers 7.12502
rthumb -14.9213 -69.7736
lclavicle -2.8625e-014 9.54166e-015
lhumerus -8.2965 -69.2503 105.885
lradius 136.623
lwrist 21.4634
lhand -40.8214 -48.0205
lfingers 7.12502
lthumb -13.7595 -18.4955
rfemur -13.6392 11.484 8.91312
rtibia 20.2581
rfoot -16.4877 -6.21001
rtoes -13.7935
lfemur -13.7081 11.7525 -18.7485
ltibia 29.459
lfoot -20.3721 11.7501
ltoes -55.6101
489
root -0.464252 18.5762 4.77244 3.01206 -18.4379 3.39951
lowerback 38.1963 -2.88959 4.20595
upperback 16.7406 -2.32595 5.35923
thorax -0.213834 -1.39427 4.20455
lowerneck -6.90384 -6.00895 -4.17283
upperneck 35.7571 -9.15991 2.81838
head 13.5568 -4.16524 0.638749
rclavicle 3.65764e-014 -1.20066e-013
rhumerus -49.8822 72.434 -132.17
rradius 144.815
rwrist 15.7305
rhand -42.4872 -40.1785
rfingers 7.12502
rthumb -15.3645 -69.5876
lclavicle 3.65764e-014 -1.20066e-013
lhumerus -8.2365 -69.2793 105.641
lradius 136.861
lwrist 21.3687
lhand -40.0448 -47.5695
lfingers 7.12502
lthumb -13.011 -17.9952
rfemur -13.567 11.395 8.84173
rtibia 20.2964
rfoot -16.6028 -6.27441
rtoes -13.5966
lfemur -13.6928 11.6604 -18.8204
ltibia 29.4061
lfoot -20.3309 11.6884
ltoes -55.7078
490
root -0.469763 18.5781 4.77783 3.00075 -18.227 3.43735
lowerback 38.201 -2.68159 4.14043
upperback 16.7311 -2.07863 5.56201
thorax -0.234812 -1.28579 4.37297
lowerneck -7.3821 -5.45425 -2.91835
upperneck 35.8183 -8.74022 3.14413
head 13.6146 -3.78285 0.59151
rclavicle 5.88403e-014 -7.31528e-014
rhumerus -49.1971 72.3365 -131.457
rradius 144.57
rwrist 15.7498
rhand -43.0085 -39.879
rfingers 7.12502
rthumb -15.8665 -69.249
lclavicle 5.88403e-014 -7.31528e-014
lhumerus -8.0779 -69.6762 105.468
lradius 137.109
lwrist 21.6434
lhand -39.5969 -47.0589
lfingers 7.12502
lthumb -12.5792 -17.4576
rfemur -13.4926 11.2963 8.8224
rtibia 20.33
rfoot -16.6848 -6.33289
rtoes -13.6274
lfemur -13.6668 11.6451 -18.8441
ltibia 29.3505
lfoot -20.2467 11.555
ltoes -55.8075
